<?xml version="1.0" standalone="no"?><!DOCTYPE svg PUBLIC "-//W3C//DTD SVG 1.1//EN" "http://www.w3.org/Graphics/SVG/1.1/DTD/svg11.dtd"><svg class="icon" width="64px" height="64.00px" viewBox="0 0 1024 1024" version="1.1" xmlns="http://www.w3.org/2000/svg"><path fill="#1296db" d="M213.333333 1024a128 128 0 0 1-128-128v-170.666667H42.666667a42.666667 42.666667 0 0 1 0-85.333333h42.666666V384H42.666667a42.666667 42.666667 0 1 1 0-85.333333h42.666666V128A128 128 0 0 1 205.824 0.213333L213.333333 0h682.666667a128 128 0 0 1 128 128v768a128 128 0 0 1-128 128zM682.666667 85.333333H213.333333a42.666667 42.666667 0 0 0-42.666666 42.666667v170.666667h42.666666a42.666667 42.666667 0 1 1 0 85.333333H170.666667v256h42.666666a42.666667 42.666667 0 0 1 0 85.333333H170.666667v170.666667a42.666667 42.666667 0 0 0 37.674666 42.368L213.333333 938.666667h469.333334V85.333333z m213.333333 0h-128v853.333334h128a42.666667 42.666667 0 0 0 42.368-37.674667L938.666667 896V128a42.666667 42.666667 0 0 0-42.666667-42.666667z"  /></svg>