<?xml version="1.0" standalone="no"?><!DOCTYPE svg PUBLIC "-//W3C//DTD SVG 1.1//EN" "http://www.w3.org/Graphics/SVG/1.1/DTD/svg11.dtd"><svg class="icon" width="16px" height="16.00px" viewBox="0 0 1024 1024" version="1.1" xmlns="http://www.w3.org/2000/svg"><path fill="#1296db" d="M682.666667 0c55.552 0 102.826667 35.413333 120.533333 84.821333l0.170667 0.426667L810.666667 85.333333a128 128 0 0 1 127.786666 120.490667L938.666667 213.333333v682.666667a128 128 0 0 1-120.490667 127.786667L810.666667 1024H213.333333a128 128 0 0 1-127.786666-120.490667L85.333333 896V213.333333a128 128 0 0 1 120.490667-127.786666L213.333333 85.333333l7.296-0.085333 0.170667-0.426667A128.042667 128.042667 0 0 1 341.333333 0z m128 170.666667a128 128 0 0 1-128 128H341.333333a128 128 0 0 1-128-128 42.666667 42.666667 0 0 0-42.368 37.674666L170.666667 213.333333v682.666667a42.666667 42.666667 0 0 0 37.674666 42.368L213.333333 938.666667h597.333334a42.666667 42.666667 0 0 0 42.368-37.674667L853.333333 896V213.333333a42.666667 42.666667 0 0 0-37.674666-42.368z m-128 469.333333a42.666667 42.666667 0 0 1 0 85.333333H341.333333a42.666667 42.666667 0 0 1 0-85.333333h341.333334z m0-213.333333a42.666667 42.666667 0 0 1 0 85.333333H341.333333a42.666667 42.666667 0 0 1 0-85.333333h341.333334z m0-341.333334H341.333333a42.666667 42.666667 0 0 0-42.666666 42.666667v42.666667a42.666667 42.666667 0 0 0 42.666666 42.666666h341.333334a42.666667 42.666667 0 0 0 42.666666-42.666666V128a42.666667 42.666667 0 0 0-42.666666-42.666667z"  /></svg>