<?xml version="1.0" standalone="no"?><!DOCTYPE svg PUBLIC "-//W3C//DTD SVG 1.1//EN" "http://www.w3.org/Graphics/SVG/1.1/DTD/svg11.dtd"><svg class="icon" width="16px" height="16.00px" viewBox="0 0 1024 1024" version="1.1" xmlns="http://www.w3.org/2000/svg"><path fill="#1296db" d="M640.56748 504.318597V895.467197a127.923885 127.923885 0 0 1-120.419018 127.710679L512.643594 1023.391082h-15.777279l-202.119738-173.251582 60.465356-60.465356 170.650463 146.259642 1.151315-0.298489c13.304084-4.775825 23.580636-15.990486 27.034581-29.848907l0.938109-5.330161L555.28489 895.467197v-305.86601l85.28259-85.28259zM1011.802595 12.493899a42.641295 42.641295 0 0 1 3.539227 56.28651l-3.539227 4.008282-938.108492 938.108492a42.641295 42.641295 0 0 1-63.834019-56.28651l3.539228-4.008281 938.108492-938.108493a42.641295 42.641295 0 0 1 60.294791 0z m-172.057626 721.490713l4.178847 3.539228 125.280125 125.322766a44.304306 44.304306 0 0 1-58.418574 66.17929l-4.221488-3.539227-125.280125-125.322767a44.304306 44.304306 0 0 1 58.418574-66.17929zM512.643594 0a127.923885 127.923885 0 0 1 127.710679 120.419017L640.56748 127.923885v135.172906l-85.28259 85.28259V127.923885a42.641295 42.641295 0 0 0-19.359148-35.733405l-4.519978-2.558478-3.837716-1.620369L231.808025 383.771656l-48.653718-0.085283c-8.442976 0-15.777279 0.127924-22.642527 0.298489l-6.779966 0.255848-13.261443 0.682261c-19.913485 1.279239-36.20246 3.581869-47.672968 6.822607l-5.330162 1.705652L86.230644 393.920284v278.277092l6.6094 2.174706c7.675433 2.174706 17.44029 3.922999 28.996081 5.202238l9.039954 0.852826 9.636933 0.767543c8.315053 0.511696 16.203692 0.852826 25.03044 0.98075l9.167879 0.127924L221.44619 682.260722l-84.173916 84.173916-2.046782-0.085283c-80.592048-5.031673-130.482363-22.088191-134.064232-77.479233L0.948053 682.260722V383.771656c0-58.205368 46.777501-77.223385 124.938995-83.321091l9.167878-0.639619 7.54751-0.426413 11.172019-0.511696 11.555791-0.298489 31.213428-0.213206L494.990098 0H512.643594z m426.412951 511.695541a42.641295 42.641295 0 0 1 0 85.28259h-170.56518a42.641295 42.641295 0 0 1 0-85.28259h170.56518z"  /></svg>