<?xml version="1.0" standalone="no"?><!DOCTYPE svg PUBLIC "-//W3C//DTD SVG 1.1//EN" "http://www.w3.org/Graphics/SVG/1.1/DTD/svg11.dtd"><svg class="icon" width="16px" height="16.00px" viewBox="0 0 1024 1024" version="1.1" xmlns="http://www.w3.org/2000/svg"><path fill="#1296db" d="M399.1552 137.91232a40.96 40.96 0 0 1-22.97856 53.16608A368.76288 368.76288 0 0 0 143.36 533.9136a368.64 368.64 0 0 0 737.28 0c0-151.552-92.28288-285.9008-230.35904-341.85216a40.96 40.96 0 0 1 30.72-75.93984A450.64192 450.64192 0 0 1 962.56 533.9136c0 248.832-201.728 450.56-450.56 450.56s-450.56-201.728-450.56-450.56c0-186.368 114.19648-351.4368 284.54912-418.97984a40.96 40.96 0 0 1 53.16608 22.97856zM512 0a40.96 40.96 0 0 1 40.96 40.96v491.52a40.96 40.96 0 0 1-81.92 0V40.96a40.96 40.96 0 0 1 40.96-40.96z"  /></svg>