<?xml version="1.0" standalone="no"?><!DOCTYPE svg PUBLIC "-//W3C//DTD SVG 1.1//EN" "http://www.w3.org/Graphics/SVG/1.1/DTD/svg11.dtd"><svg class="icon" width="16px" height="16.00px" viewBox="0 0 1024 1024" version="1.1" xmlns="http://www.w3.org/2000/svg"><path fill="#1296db" d="M524.501333 0l5.76 0.426667c3.84 0.554667 7.594667 1.664 11.093334 3.285333l2.858666 1.28C622.293333 41.941333 661.333333 82.901333 661.333333 128v768c0 27.690667-33.109333 65.706667-99.328 114.176l-10.197333 4.138667a256 256 0 0 1-16.085333 5.973333l-10.666667 3.541333-6.570667-2.389333a41.344 41.344 0 0 1-8.661333-4.437333l-3.882667-2.986667-286.976-245.973333-18.346666 0.042666a762.965333 762.965333 0 0 1-37.461334-0.896l-7.466666-0.426666C71.936 761.514667 21.333333 743.253333 21.333333 682.666667V384c0-60.501333 50.517333-78.677333 134.186667-84.010667l7.552-0.426666c7.466667-0.426667 14.805333-0.64 22.741333-0.810667l31.232-0.213333 292.352-292.266667A21.333333 21.333333 0 0 1 524.501333 0z m278.314667 738.645333c17.066667-17.066667 44.586667-17.322667 61.994667-0.682666l125.354666 125.397333a44.330667 44.330667 0 0 1-62.677333 62.677333L802.133333 800.64a44.330667 44.330667 0 0 1 0.682667-61.994667zM548.266667 88.064L252.330667 384l-48.682667-0.085333A1006.933333 1006.933333 0 0 0 188.032 384l-13.824 0.426667-13.269333 0.682666c-23.253333 1.493333-41.557333 4.394667-53.034667 8.533334L106.666667 394.154667v278.442666l6.613333 2.176c9.557333 2.730667 22.485333 4.778667 38.058667 6.101334l9.642666 0.725333c5.546667 0.341333 10.88 0.597333 16.469334 0.768l17.749333 0.341333L250.453333 682.666667l296.106667 253.824 1.152-0.298667c14.976-5.376 26.112-18.901333 27.989333-35.2L576 896V128a42.666667 42.666667 0 0 0-23.893333-38.314667l-3.84-1.621333zM960 512a42.666667 42.666667 0 0 1 0 85.333333h-170.666667a42.666667 42.666667 0 0 1 0-85.333333h170.666667z m5.162667-346.496a42.666667 42.666667 0 0 1 0.042666 60.330667l-120.746666 120.661333a42.666667 42.666667 0 0 1-60.288-60.330667l120.661333-120.661333a42.666667 42.666667 0 0 1 60.330667 0z"  /></svg>