<?xml version="1.0" standalone="no"?><!DOCTYPE svg PUBLIC "-//W3C//DTD SVG 1.1//EN" "http://www.w3.org/Graphics/SVG/1.1/DTD/svg11.dtd"><svg class="icon" width="64px" height="64.00px" viewBox="0 0 1024 1024" version="1.1" xmlns="http://www.w3.org/2000/svg"><path fill="#1296db" d="M861.866667 422.826667a42.666667 42.666667 0 0 1 42.666666 42.666666 388.309333 388.309333 0 0 1-349.909333 386.389334L554.666667 853.333333v85.333334h170.666666a42.666667 42.666667 0 0 1 4.992 85.034666L725.333333 1024H298.666667a42.666667 42.666667 0 0 1-4.992-85.034667L298.666667 938.666667h170.666666v-85.333334l0.128-2.346666a385.664 385.664 0 0 1-133.973333-41.770667l64.128-64.042667A302.933333 302.933333 0 0 0 819.2 465.493333a42.666667 42.666667 0 0 1 42.666667-42.666666zM1011.498667 12.501333a42.666667 42.666667 0 0 1 3.541333 56.32l-3.541333 4.010667-938.666667 938.666667a42.666667 42.666667 0 0 1-63.872-56.32l3.541333-4.010667 938.666667-938.666667a42.666667 42.666667 0 0 1 60.330667 0zM772.266667 372.394667V469.333333a256 256 0 0 1-339.072 242.218667l71.893333-71.893333a170.666667 170.666667 0 0 0 181.632-161.792l0.213333-8.533334v-11.605333l85.333334-85.333333zM170.666667 422.826667a42.666667 42.666667 0 0 1 42.666666 42.666666c0 63.573333 19.626667 122.624 53.12 171.392L205.312 698.026667A386.56 386.56 0 0 1 128 465.493333a42.666667 42.666667 0 0 1 42.666667-42.666666zM516.266667 0a256.042667 256.042667 0 0 1 234.325333 152.746667l-67.413333 67.456a170.709333 170.709333 0 0 0-337.365334 27.306666L345.6 256v213.333333c0 25.856 5.76 50.346667 16.042667 72.32l-62.805334 62.848a254.549333 254.549333 0 0 1-38.272-122.837333L260.266667 469.333333V256a256 256 0 0 1 256-256z"  /></svg>