<?xml version="1.0" standalone="no"?><!DOCTYPE svg PUBLIC "-//W3C//DTD SVG 1.1//EN" "http://www.w3.org/Graphics/SVG/1.1/DTD/svg11.dtd"><svg class="icon" width="64px" height="61.36px" viewBox="0 0 1068 1024" version="1.1" xmlns="http://www.w3.org/2000/svg"><path fill="#1296db" d="M942.792348 178.309565a133.565217 133.565217 0 0 1 125.506782 125.506783L1068.521739 311.652174v578.782609a133.565217 133.565217 0 0 1-133.565217 133.565217H133.565217a133.565217 133.565217 0 0 1-133.565217-133.565217V178.086957c0-78.803478 58.768696-178.086957 133.565217-178.086957h387.873392a89.043478 89.043478 0 0 1 69.097739 32.901565L708.518957 178.086957H934.956522zM133.565217 267.130435a44.521739 44.521739 0 0 0-44.521739 44.521739v578.782609a44.521739 44.521739 0 0 0 44.521739 44.521739h801.391305a44.521739 44.521739 0 0 0 44.521739-44.521739V311.652174a44.521739 44.521739 0 0 0-44.521739-44.521739z m667.38087 400.250435a44.521739 44.521739 0 0 1 0 89.043478h-534.26087a44.521739 44.521739 0 0 1 0-89.043478h534.26087z m-222.608696-222.608696a44.521739 44.521739 0 0 1 0 89.043478h-311.652174a44.521739 44.521739 0 0 1 0-89.043478h311.652174zM479.053913 89.043478H133.565217c-13.178435 0-44.521739 52.98087-44.521739 89.043479v7.568695c13.935304-4.897391 28.93913-7.568696 44.521739-7.568695h460.221218l-45.634783-56.141914a89.043478 89.043478 0 0 0-61.083826-32.500869L479.053913 89.043478z"  /></svg>