<?xml version="1.0" standalone="no"?><!DOCTYPE svg PUBLIC "-//W3C//DTD SVG 1.1//EN" "http://www.w3.org/Graphics/SVG/1.1/DTD/svg11.dtd"><svg class="icon" width="16px" height="13.34px" viewBox="0 0 1228 1024" version="1.1" xmlns="http://www.w3.org/2000/svg"><path fill="#1296db" d="M768 153.6a153.6 153.6 0 0 1 153.6 153.6v63.1296L1112.2176 256H1126.4a102.4 102.4 0 0 1 102.4 102.4v460.8a102.4 102.4 0 0 1-102.4 102.4h-14.1824L921.6 807.2192V870.4a153.6 153.6 0 0 1-144.5888 153.344L768 1024H153.6a153.6 153.6 0 0 1-153.6-153.6V307.2a153.6 153.6 0 0 1 153.6-153.6z m0 102.4H153.6a51.2 51.2 0 0 0-51.2 51.2v563.2a51.2 51.2 0 0 0 51.2 51.2h614.4a51.2 51.2 0 0 0 51.2-51.2V307.2a51.2 51.2 0 0 0-51.2-51.2z m358.4 110.848l-204.8 122.88v198.0928l204.8 122.88V366.848zM332.8 358.4a128 128 0 1 1 0 256 128 128 0 0 1 0-256z m0 102.4a25.6 25.6 0 1 0 0 51.2 25.6 25.6 0 0 0 0-51.2zM563.2 0a51.2 51.2 0 0 1 0 102.4H102.4a51.2 51.2 0 1 1 0-102.4h460.8z"  /></svg>