<?xml version="1.0" standalone="no"?><!DOCTYPE svg PUBLIC "-//W3C//DTD SVG 1.1//EN" "http://www.w3.org/Graphics/SVG/1.1/DTD/svg11.dtd"><svg class="icon" width="16px" height="16.00px" viewBox="0 0 1024 1024" version="1.1" xmlns="http://www.w3.org/2000/svg"><path fill="#1296db" d="M896 0a128 128 0 0 1 128 128v768a128 128 0 0 1-128 128H128a128 128 0 0 1-128-128V128a128 128 0 0 1 128-128z m0 85.333333H128a42.666667 42.666667 0 0 0-42.666667 42.666667v768a42.666667 42.666667 0 0 0 42.666667 42.666667h768a42.666667 42.666667 0 0 0 42.666667-42.666667V128a42.666667 42.666667 0 0 0-42.666667-42.666667zM320 554.666667a149.333333 149.333333 0 1 1 0 298.666666 149.333333 149.333333 0 0 1 0-298.666666z m0 85.333333a64 64 0 1 0 0 128 64 64 0 0 0 0-128zM853.333333 640a42.666667 42.666667 0 0 1 0 85.333333h-256a42.666667 42.666667 0 0 1 0-85.333333h256z m-353.834666-414.165333a42.666667 42.666667 0 0 1 3.541333 56.32l-3.541333 4.010666-170.666667 170.666667c-16.64 16.64-43.648 16.64-60.330667 0l-42.666666-42.666667A42.666667 42.666667 0 0 1 282.069333 350.293333l4.010667 3.584 12.501333 12.458667 140.544-140.458667a42.666667 42.666667 0 0 1 60.330667 0zM853.333333 298.666667a42.666667 42.666667 0 0 1 0 85.333333h-256a42.666667 42.666667 0 0 1 0-85.333333h256z"  /></svg>