<?xml version="1.0" standalone="no"?><!DOCTYPE svg PUBLIC "-//W3C//DTD SVG 1.1//EN" "http://www.w3.org/Graphics/SVG/1.1/DTD/svg11.dtd"><svg class="icon" width="16px" height="16.00px" viewBox="0 0 1024 1024" version="1.1" xmlns="http://www.w3.org/2000/svg"><path fill="#1296db" d="M898.688 246.101333A425.045333 425.045333 0 0 1 938.666667 426.666667c0 221.269333-168.448 403.2-384.085334 424.533333L554.666667 853.333333v85.333334h213.333333a42.666667 42.666667 0 0 1 4.992 85.034666L768 1024H256a42.666667 42.666667 0 0 1-4.992-85.034667L256 938.666667h213.333333v-85.333334l0.128-2.133333a423.893333 423.893333 0 0 1-138.026666-37.845333l65.28-65.322667A341.333333 341.333333 0 0 0 833.365333 311.338667l65.28-65.28zM1011.498667 12.501333a42.666667 42.666667 0 0 1 3.541333 56.32l-3.541333 4.010667-938.666667 938.666667a42.666667 42.666667 0 0 1-63.872-56.32l3.541333-4.010667 938.666667-938.666667a42.666667 42.666667 0 0 1 60.330667 0zM512 0c108.8 0 208.128 40.746667 283.52 107.818667l-60.458667 60.458666A341.333333 341.333333 0 0 0 253.610667 649.728l-60.458667 60.458667A425.045333 425.045333 0 0 1 85.333333 426.666667C85.333333 191.018667 276.352 0 512 0z m213.162667 419.541333L725.333333 426.666667a213.333333 213.333333 0 0 1-220.458666 213.205333l220.288-220.330667zM512 213.333333c49.92 0 95.786667 17.152 132.138667 45.824l-61.056 61.013334a128 128 0 0 0-177.536 177.536l-61.013334 61.098666A213.333333 213.333333 0 0 1 512 213.333333z"  /></svg>