<?xml version="1.0" standalone="no"?><!DOCTYPE svg PUBLIC "-//W3C//DTD SVG 1.1//EN" "http://www.w3.org/Graphics/SVG/1.1/DTD/svg11.dtd"><svg class="icon" width="64px" height="64.00px" viewBox="0 0 1024 1024" version="1.1" xmlns="http://www.w3.org/2000/svg"><path fill="#1296db" d="M512 0c235.648 0 426.666667 191.018667 426.666667 426.666667 0 221.226667-168.362667 403.114667-383.957334 424.533333L554.666667 938.666667h213.333333a42.666667 42.666667 0 0 1 4.992 85.034666L768 1024H256a42.666667 42.666667 0 0 1-4.992-85.034667L256 938.666667h213.333333v-87.466667C257.621333 830.250667 91.434667 654.464 85.504 438.613333L85.333333 426.666667C85.333333 191.018667 276.352 0 512 0z m0 85.333333a341.333333 341.333333 0 1 0 0 682.666667 341.333333 341.333333 0 0 0 0-682.666667z m0 128a213.333333 213.333333 0 1 1 0 426.666667 213.333333 213.333333 0 0 1 0-426.666667z m0 85.333334a128 128 0 1 0 0 256 128 128 0 0 0 0-256z"  /></svg>