<?xml version="1.0" standalone="no"?><!DOCTYPE svg PUBLIC "-//W3C//DTD SVG 1.1//EN" "http://www.w3.org/Graphics/SVG/1.1/DTD/svg11.dtd"><svg class="icon" width="64px" height="58.67px" viewBox="0 0 1117 1024" version="1.1" xmlns="http://www.w3.org/2000/svg"><path fill="#1296db" d="M525.637818 777.634909a46.545455 46.545455 0 0 1 65.815273 0l166.912 166.912A46.545455 46.545455 0 0 1 725.457455 1024H391.633455a46.545455 46.545455 0 0 1-32.907637-79.453091zM977.454545 0c73.309091 0 135.074909 52.922182 139.403637 122.088727l0.232727 7.726546v624.733091c0 70.283636-59.112727 125.719273-131.537454 129.582545L977.454545 884.363636h-139.636363a46.545455 46.545455 0 0 1-5.445818-92.765091L837.818182 791.272727h139.636363c24.715636 0 43.473455-15.080727 46.219637-32.395636l0.325818-4.328727V129.815273c0-17.594182-16.849455-33.978182-40.494545-36.398546L977.454545 93.090909H139.636364c-24.715636 0-43.473455 15.080727-46.219637 32.395636L93.090909 129.815273v624.733091c0 17.594182 16.849455 33.978182 40.494546 36.398545L139.636364 791.272727h139.636363a46.545455 46.545455 0 0 1 5.445818 92.765091L279.272727 884.363636H139.636364C66.327273 884.363636 4.561455 831.441455 0.232727 762.274909L0 754.548364V129.815273C0 59.578182 59.112727 4.096 131.537455 0.232727L139.636364 0h837.818181z"  /></svg>