<?xml version="1.0" standalone="no"?><!DOCTYPE svg PUBLIC "-//W3C//DTD SVG 1.1//EN" "http://www.w3.org/Graphics/SVG/1.1/DTD/svg11.dtd"><svg class="icon" width="64px" height="58.67px" viewBox="0 0 1117 1024" version="1.1" xmlns="http://www.w3.org/2000/svg"><path fill="#1296db" d="M977.454545 0a139.636364 139.636364 0 0 1 139.636364 139.636364v744.727272a139.636364 139.636364 0 0 1-139.636364 139.636364H139.636364a139.636364 139.636364 0 0 1-139.636364-139.636364V139.636364a139.636364 139.636364 0 0 1 139.636364-139.636364zM321.163636 495.848727L93.090909 761.902545V884.363636a46.545455 46.545455 0 0 0 41.099636 46.219637L139.636364 930.909091h837.818181a46.312727 46.312727 0 0 0 23.319273-6.237091 42.914909 42.914909 0 0 1-8.052363-5.818182l-4.049455-4.189091-196.189091-236.637091-151.04 188.881455a46.545455 46.545455 0 0 1-71.586909 1.396364l-3.490909-4.654546L321.163636 495.848727zM977.454545 93.090909H139.636364a46.545455 46.545455 0 0 0-46.545455 46.545455v479.232l197.352727-230.260364a46.545455 46.545455 0 0 1 70.656-0.046545l3.444364 4.514909 243.944727 365.940363 146.432-183.016727a46.545455 46.545455 0 0 1 67.677091-5.306182l4.002909 4.096L1024 811.659636V139.636364a46.545455 46.545455 0 0 0-41.099636-46.219637L977.454545 93.090909z m-186.181818 139.636364a93.090909 93.090909 0 1 1 0 186.181818 93.090909 93.090909 0 0 1 0-186.181818z"  /></svg>