<?xml version="1.0" standalone="no"?><!DOCTYPE svg PUBLIC "-//W3C//DTD SVG 1.1//EN" "http://www.w3.org/Graphics/SVG/1.1/DTD/svg11.dtd"><svg class="icon" width="16px" height="16.00px" viewBox="0 0 1024 1024" version="1.1" xmlns="http://www.w3.org/2000/svg"><path fill="#1296db" d="M640 0c70.570667 0 298.666667 228.010667 298.666667 298.666667v597.333333a128 128 0 0 1-128 128H256a170.666667 170.666667 0 0 1-170.666667-170.666667V128a128 128 0 0 1 128-128z m-42.666667 85.333333H213.333333a42.666667 42.666667 0 0 0-42.666666 42.666667v725.333333a85.333333 85.333333 0 0 0 85.333333 85.333334h554.666667a42.666667 42.666667 0 0 0 42.666666-42.666667V341.333333h-128a128 128 0 0 1-127.786666-120.490666L597.333333 213.333333V85.333333z m85.333334 640a42.666667 42.666667 0 0 1 0 85.333334H341.333333a42.666667 42.666667 0 0 1 0-85.333334h341.333334z m0-213.333333a42.666667 42.666667 0 0 1 0 85.333333H341.333333a42.666667 42.666667 0 0 1 0-85.333333h341.333334z m0-397.098667V213.333333a42.666667 42.666667 0 0 0 37.674666 42.368L725.333333 256l98.517334 0.042667A1572.608 1572.608 0 0 0 682.666667 114.901333z"  /></svg>