<?xml version="1.0" standalone="no"?><!DOCTYPE svg PUBLIC "-//W3C//DTD SVG 1.1//EN" "http://www.w3.org/Graphics/SVG/1.1/DTD/svg11.dtd"><svg class="icon" width="64px" height="64.00px" viewBox="0 0 1024 1024" version="1.1" xmlns="http://www.w3.org/2000/svg"><path fill="#1296db" d="M725.333333 0c70.570667 0 298.666667 228.010667 298.666667 298.666667v597.333333a128 128 0 0 1-128 128H128a128 128 0 0 1-128-128V128a128 128 0 0 1 128-128z m0 85.333333H128a42.666667 42.666667 0 0 0-42.666667 42.666667v768a42.666667 42.666667 0 0 0 42.666667 42.666667h768a42.666667 42.666667 0 0 0 42.666667-42.666667V298.666667c0-23.509333-189.866667-213.333333-213.333334-213.333334z m42.666667 597.333334a42.666667 42.666667 0 0 1 4.992 85.034666L768 768H256a42.666667 42.666667 0 0 1-4.992-85.034667L256 682.666667h512z m0-213.333334a42.666667 42.666667 0 0 1 4.992 85.034667L768 554.666667H256a42.666667 42.666667 0 0 1-4.992-85.034667L256 469.333333h512z m-170.666667-213.333333a42.666667 42.666667 0 0 1 4.992 85.034667L597.333333 341.333333H256a42.666667 42.666667 0 0 1-4.992-85.034666L256 256h341.333333z"  /></svg>