<?xml version="1.0" standalone="no"?><!DOCTYPE svg PUBLIC "-//W3C//DTD SVG 1.1//EN" "http://www.w3.org/Graphics/SVG/1.1/DTD/svg11.dtd"><svg class="icon" width="64px" height="58.67px" viewBox="0 0 1117 1024" version="1.1" xmlns="http://www.w3.org/2000/svg"><path fill="#1296db" d="M977.454545 0a139.636364 139.636364 0 0 1 139.636364 139.636364v605.090909a139.636364 139.636364 0 0 1-139.636364 139.636363H325.864727a93.090909 93.090909 0 0 0-55.854545 18.618182l-148.852364 111.709091a46.545455 46.545455 0 0 1-27.927273 9.309091c-40.494545 0-70.795636-18.385455-84.48-52.596364-6.702545-16.756364-8.471273-29.928727-8.704-56.925091L0.139636 139.636364a139.636364 139.636364 0 0 1 139.636364-139.636364z m0 93.090909H139.776a46.545455 46.545455 0 0 0-46.545455 46.545455v744.727272l-0.09309 20.154182 0.09309 14.708364 145.82691-109.381818a93.090909 93.090909 0 0 1 55.854545-18.571637H977.454545a46.545455 46.545455 0 0 0 46.545455-46.545454V139.636364a46.545455 46.545455 0 0 0-46.545455-46.545455z m-139.636363 418.909091a46.545455 46.545455 0 1 1 0 93.090909H279.272727a46.545455 46.545455 0 1 1 0-93.090909h558.545455z m0-232.727273a46.545455 46.545455 0 1 1 0 93.090909H279.272727a46.545455 46.545455 0 1 1 0-93.090909h558.545455z"  /></svg>