<?xml version="1.0" standalone="no"?><!DOCTYPE svg PUBLIC "-//W3C//DTD SVG 1.1//EN" "http://www.w3.org/Graphics/SVG/1.1/DTD/svg11.dtd"><svg class="icon" width="64px" height="64.00px" viewBox="0 0 1024 1024" version="1.1" xmlns="http://www.w3.org/2000/svg"><path fill="#1296db" d="M512 0a298.666667 298.666667 0 0 1 0 597.333333 384 384 0 0 0-384 384 42.666667 42.666667 0 0 1-85.333333 0c0-199.082667 123.946667-369.237333 298.922666-437.418666A298.666667 298.666667 0 0 1 512 0z m256 597.333333a42.666667 42.666667 0 0 1 42.666667 42.666667v128h128a42.666667 42.666667 0 0 1 0 85.333333h-128v128a42.666667 42.666667 0 0 1-85.333334 0v-128h-128a42.666667 42.666667 0 0 1 0-85.333333h128v-128a42.666667 42.666667 0 0 1 42.666667-42.666667zM512 85.333333a213.333333 213.333333 0 1 0 0 426.666667 213.333333 213.333333 0 0 0 0-426.666667z"  /></svg>