<?xml version="1.0" standalone="no"?><!DOCTYPE svg PUBLIC "-//W3C//DTD SVG 1.1//EN" "http://www.w3.org/Graphics/SVG/1.1/DTD/svg11.dtd"><svg class="icon" width="16px" height="14.67px" viewBox="0 0 1117 1024" version="1.1" xmlns="http://www.w3.org/2000/svg"><path fill="#1296db" d="M837.818182 907.636364a46.545455 46.545455 0 0 1 5.445818 92.765091L837.818182 1000.727273H279.272727a46.545455 46.545455 0 0 1-5.445818-92.765091L279.272727 907.636364h558.545455zM977.454545 0a139.636364 139.636364 0 0 1 139.636364 139.636364v558.545454a139.636364 139.636364 0 0 1-139.636364 139.636364H139.636364a139.636364 139.636364 0 0 1-139.636364-139.636364V139.636364a139.636364 139.636364 0 0 1 139.636364-139.636364z m0 93.090909H139.636364a46.545455 46.545455 0 0 0-46.545455 46.545455v558.545454a46.545455 46.545455 0 0 0 46.545455 46.545455h837.818181a46.545455 46.545455 0 0 0 46.545455-46.545455V139.636364a46.545455 46.545455 0 0 0-46.545455-46.545455zM419.746909 186.181818c1.349818 0 2.699636 0.093091 4.002909 0.232727l-1.256727-0.09309 2.699636 0.279272a45.940364 45.940364 0 0 1 17.547637 5.818182l325.166545 186.181818 1.442909 0.930909 1.908364 1.256728-1.954909-1.256728 3.723636 2.466909a46.405818 46.405818 0 0 1 2.56 71.68l-1.396364 1.163637-2.746181 2.001454-0.372364 0.279273 0.279273-0.186182-0.186182 0.232728 0.465454-0.41891a46.871273 46.871273 0 0 1-2.466909 1.629091l-1.256727 0.837819-325.166545 186.181818a47.010909 47.010909 0 0 1-18.013091 5.911272l-0.837818 0.046546a29.696 29.696 0 0 1-3.211637 0.279273H418.909091a46.545455 46.545455 0 0 1-46.545455-46.545455V232.727273c0-6.190545 1.210182-12.101818 3.397819-17.454546l0.325818-0.698182a46.498909 46.498909 0 0 1 39.563636-28.299636l1.675636-0.046545L419.746909 186.181818zM465.454545 312.971636v211.828364L650.519273 418.909091 465.454545 312.971636z"  /></svg>